<?xml version="1.0" encoding="utf-8"?>
<!-- Generator: Adobe Illustrator 22.0.0, SVG Export Plug-In . SVG Version: 6.00 Build 0)  -->
<svg version="1.1" xmlns="http://www.w3.org/2000/svg" xmlns:xlink="http://www.w3.org/1999/xlink" x="0px" y="0px"
	 viewBox="0 0 40 40" style="enable-background:new 0 0 40 40;" xml:space="preserve">
<style type="text/css">
	.st0{display:none;}
	.st1{display:inline;fill:#FFFFFF;}
	.st2{display:inline;}
	.st3{fill:none;}
	.st4{fill:none;stroke:#202125;stroke-width:2;stroke-miterlimit:10;}
	.st5{fill:none;stroke:#202125;stroke-width:2;stroke-linecap:round;stroke-linejoin:round;stroke-miterlimit:10;}
	.st6{fill:#202125;}
	.st7{fill:none;stroke:#FFFFFF;stroke-width:2;stroke-miterlimit:10;}
	.st8{fill:none;stroke:#FFFFFF;stroke-width:2;stroke-linecap:round;stroke-linejoin:round;stroke-miterlimit:10;}
	.st9{fill:#FFFFFF;}
	.st10{fill:#FDD328;}
	.st11{opacity:0.2;}
	.st12{fill:#F74B4B;}
	.st13{opacity:0.4;}
	.st14{fill:none;stroke:#E5E5E5;stroke-linecap:round;stroke-miterlimit:10;}
	.st15{opacity:0.6;fill:none;stroke:#F74B4B;stroke-width:1.5;stroke-linecap:round;stroke-linejoin:round;stroke-miterlimit:10;}
	.st16{opacity:0.9;fill:#F74B4B;}
	.st17{opacity:0.55;}
	.st18{opacity:0.95;fill:#FDD328;}
	.st19{opacity:0.8;clip-path:url(#SVGID_4_);fill:#202125;}
	.st20{fill:#F8F8F8;}
	.st21{opacity:0.7;clip-path:url(#SVGID_6_);fill:#202125;}
	.st22{opacity:0.7;clip-path:url(#SVGID_8_);fill:#202125;}
	.st23{display:none;clip-path:url(#SVGID_8_);}
	.st24{display:inline;opacity:0.3;fill:#F74B4B;}
	.st25{display:inline;opacity:0.3;fill:#202125;}
	.st26{display:inline;opacity:0.6;fill:#202125;}
	.st27{opacity:0.7;clip-path:url(#SVGID_10_);fill:#202125;}
	.st28{opacity:0.7;clip-path:url(#SVGID_12_);fill:#202125;}
	.st29{opacity:0.7;clip-path:url(#SVGID_14_);fill:#202125;}
	.st30{opacity:0.7;clip-path:url(#SVGID_16_);fill:#202125;}
	.st31{opacity:0.7;clip-path:url(#SVGID_18_);fill:#202125;}
	.st32{opacity:0.7;clip-path:url(#SVGID_20_);fill:#202125;}
	.st33{opacity:0.7;clip-path:url(#SVGID_22_);fill:#202125;}
	.st34{display:none;clip-path:url(#SVGID_28_);}
	.st35{display:inline;opacity:0.9;fill:#F74B4B;}
	.st36{display:inline;opacity:0.8;fill:#202125;}
	.st37{display:inline;opacity:0.55;}
	.st38{fill:#FFB71D;}
	.st39{display:inline;fill:#FFB71D;}
	.st40{fill:#821E1E;}
	.st41{fill:#F9E951;}
	.st42{display:inline;fill:#FDD328;}
	.st43{display:inline;fill:none;stroke:#FFFFFF;stroke-width:2;stroke-linecap:round;stroke-linejoin:round;stroke-miterlimit:10;}
	.st44{fill:#8D8D8D;}
	.st45{fill:#BABABA;}
</style>
<g id="design">
	<g>
		<path class="st7" d="M31.3,12.4c0-8.7-9.9-15.2-19.1-8.6c-0.3,0.2-0.6,0.5-0.8,0.8c-4.8,6.7-2.6,13.8,2.2,17.1
			c0.6,0.4,1,1.1,1,1.9l0,4c0,0.4,0.3,0.7,0.7,0.7H20h4.7c0.4,0,0.7-0.3,0.7-0.7l0-4c0-0.7,0.4-1.4,1-1.8
			C29.4,19.7,31.3,16.2,31.3,12.4z"/>
		<polygon class="st8" points="25.5,32.2 22.8,31.7 20,32.6 17.3,31.7 14.6,32.2 20,38.9 		"/>
		<circle class="st9" cx="19.8" cy="5.2" r="1"/>
		<path class="st8" d="M13.2,12.3c0-2.5,1.4-4.7,3.4-5.9"/>
	</g>
	<g class="st0">
		<path class="st43" d="M9,19.1v5.4c0,2.2-1.8,4-4,4h0c-2.2,0-4-1.8-4-4v-5.4"/>
		<path class="st43" d="M17,19.1v5.4c0,2.2-1.8,4-4,4h0c-2.2,0-4-1.8-4-4v-5.4"/>
		<path class="st43" d="M25,19.1v5.4c0,2.2-1.8,4-4,4h0c-2.2,0-4-1.8-4-4v-5.4"/>
		<path class="st43" d="M33,19.1v5.4c0,2.2-1.8,4-4,4h0c-2.2,0-4-1.8-4-4v-5.4"/>
		<path class="st43" d="M1,20.1V11c0-2.7,2.2-4.8,4.8-4.8h1.8c0.9,0,1.7-0.2,2.6-0.5l1.1-0.4c1.1-0.4,2.3-0.4,3.4,0l0.8,0.3
			c0.9,0.4,2,0.4,2.9,0l0.8-0.3c1.1-0.4,2.3-0.4,3.4,0l1.1,0.4c0.8,0.3,1.7,0.5,2.5,0.5h1.9c2.7,0,4.8,2.2,4.8,4.8v9.2"/>
		<path class="st43" d="M33.2,12.1l5.6,15.7c0.2,0.4,0.3,0.8,0.3,1.2v1.9c0,2.4-1.9,4.3-4.3,4.3l-9.7,0c-2.2,0-4-1.8-4-4v-3"/>
		<path class="st43" d="M21,28.1h2.1c5.1-0.5,6.4,2.2,6.4,5.8v0c0,0.3,0,0.7-0.1,1"/>
	</g>
</g>
<g id="color-palette">
</g>
<g id="ui-elements">
</g>
<g id="grid">
</g>
</svg>
