<?xml version="1.0" encoding="utf-8"?>
<!-- Generator: Adobe Illustrator 22.0.0, SVG Export Plug-In . SVG Version: 6.00 Build 0)  -->
<svg version="1.1" xmlns="http://www.w3.org/2000/svg" xmlns:xlink="http://www.w3.org/1999/xlink" x="0px" y="0px"
	 viewBox="0 0 69.6 75.3" style="enable-background:new 0 0 69.6 75.3;" xml:space="preserve">
<style type="text/css">
	.st0{display:none;}
	.st1{display:inline;fill:#FFFFFF;}
	.st2{display:inline;}
	.st3{fill:none;}
	.st4{fill:none;stroke:#202125;stroke-width:2;stroke-miterlimit:10;}
	.st5{fill:none;stroke:#202125;stroke-width:2;stroke-linecap:round;stroke-linejoin:round;stroke-miterlimit:10;}
	.st6{fill:#202125;}
	.st7{fill:none;stroke:#FFFFFF;stroke-width:2;stroke-miterlimit:10;}
	.st8{fill:none;stroke:#FFFFFF;stroke-width:2;stroke-linecap:round;stroke-linejoin:round;stroke-miterlimit:10;}
	.st9{fill:#FFFFFF;}
	.st10{fill:#FDD328;}
	.st11{opacity:0.2;}
	.st12{fill:#F74B4B;}
	.st13{opacity:0.4;}
	.st14{fill:none;stroke:#E5E5E5;stroke-linecap:round;stroke-miterlimit:10;}
	.st15{opacity:0.6;fill:none;stroke:#F74B4B;stroke-width:1.5;stroke-linecap:round;stroke-linejoin:round;stroke-miterlimit:10;}
	.st16{opacity:0.9;fill:#F74B4B;}
	.st17{opacity:0.55;}
	.st18{opacity:0.95;fill:#FDD328;}
	.st19{opacity:0.8;clip-path:url(#SVGID_4_);fill:#202125;}
	.st20{fill:#F8F8F8;}
	.st21{opacity:0.7;clip-path:url(#SVGID_6_);fill:#202125;}
	.st22{opacity:0.7;clip-path:url(#SVGID_8_);fill:#202125;}
	.st23{display:none;clip-path:url(#SVGID_8_);}
	.st24{display:inline;opacity:0.3;fill:#F74B4B;}
	.st25{display:inline;opacity:0.3;fill:#202125;}
	.st26{display:inline;opacity:0.6;fill:#202125;}
	.st27{opacity:0.7;clip-path:url(#SVGID_10_);fill:#202125;}
	.st28{opacity:0.7;clip-path:url(#SVGID_12_);fill:#202125;}
	.st29{opacity:0.7;clip-path:url(#SVGID_14_);fill:#202125;}
	.st30{opacity:0.7;clip-path:url(#SVGID_16_);fill:#202125;}
	.st31{opacity:0.7;clip-path:url(#SVGID_18_);fill:#202125;}
	.st32{opacity:0.7;clip-path:url(#SVGID_20_);fill:#202125;}
	.st33{opacity:0.7;clip-path:url(#SVGID_22_);fill:#202125;}
	.st34{display:none;clip-path:url(#SVGID_28_);}
	.st35{display:inline;opacity:0.9;fill:#F74B4B;}
	.st36{display:inline;opacity:0.8;fill:#202125;}
	.st37{display:inline;opacity:0.55;}
	.st38{fill:#FFB71D;}
	.st39{display:inline;fill:#FFB71D;}
	.st40{fill:#821E1E;}
	.st41{fill:#F9E951;}
	.st42{display:inline;fill:#FDD328;}
	.st43{fill:#8D8D8D;}
	.st44{fill:#BABABA;}
</style>
<g id="design">
	<g>
		<g>
			<path class="st9" d="M63.5,56.1L63.5,56.1l-0.1-42.2c0-3.3-2.7-6.1-6.1-6.1H31.9l2.6-5l-7.1,3.7L26,0l-3.6,6.2l-3.8-4.2l-0.8,6.1
				l0,0c-0.1,0-0.2-0.1-0.3-0.1L9.8,6.1l4.1,5.4c-0.1,0-0.2,0-0.2,0.1L0,15.3l11.8,1.6l-7.2,6.7l8.6-2.2v34.7h0
				c-3.4,0-6.1,2.7-6.1,6.1s2.7,6.1,6.1,6.1h0.3v1c0,3.3,2.6,5.9,5.9,5.9h38c3.3,0,5.9-2.6,5.9-5.9v-1h0.3c3.4,0,6.1-2.7,6.1-6.1
				S66.8,56.1,63.5,56.1z"/>
			<rect x="48.8" y="7.9" class="st9" width="3.3" height="3.3"/>
			<g>
				<path class="st38" d="M27.6,8c-0.3-0.4-0.4-0.7-0.4-1.2c-0.7,0.6-1,1.5-1.1,2.7C26.4,8.6,26.9,7.8,27.6,8z"/>
			</g>
			<g>
				<path class="st38" d="M23,20.5c-0.4,0.9-0.8,1.5-1.3,1.7c0.2,0.3,0.3,0.7,0.4,1.1C22.8,22.5,23.2,21.6,23,20.5z"/>
			</g>
			<g class="st0">
				<path class="st39" d="M18.7,73.7c-2,0-3.7-1.7-3.7-3.8v-3.3c-0.8,0.4-2,0.6-3.3,0.7l-1.6,0l-2.4-6.5L8.6,61
					c0.3-1.3,1.4-2.9,5-3.2l1.4-0.1V19.5L9.4,21l5-4.7c0.1-0.1,0.2-0.2,0.3-0.3c-0.2,0-0.4-0.1-0.7-0.1l-7.4-1l7.2-1.9
					c0.4-0.1,0.8-0.2,1.3-0.3c0.1,0,0.1,0,0.2,0c0.1-0.2,0.2-0.4,0.3-0.7l-2.7-3.6l4.1,1c0.3,0.1,0.5,0.1,0.8,0.2
					c0.1,0,0.4,0.1,0.7,0.1c0.1,0,0.1,0,0.2,0C18.8,9.4,19,9.1,19,8.8L19.5,5L22,7.8c0.1,0.2,0.4,0.3,0.5,0.4
					c0.2-0.1,0.4-0.4,0.6-0.7l2.3-3.8L26.2,8c0,0,0.1,0.2,0.1,0.5c0.2-0.1,0.5-0.2,0.7-0.3l4.5-2.3l-1.8,3.8h6.3
					c0.6-0.3,1.1-0.5,1.7-0.5c0.4,0,0.8,0.1,1.2,0.3c0.1,0.1,0.2,0.1,0.3,0.2h17.5c2.6,0,4.8,2.1,4.8,4.7v43.1l0.5-0.2l0.1,0.7
					l1-0.2l0.2,0.2l5-0.5l-1.4,9.1l-4.3,0.6l-0.4-0.6l-0.7,0.2v3c0,2.1-1.7,3.8-3.7,3.8H18.7z M48.3,58c0.8,0.1,1.5,0.3,2.1,0.7
					l6-1.5V46.4c-2.3,5.6-7.2,9.9-13.2,11.5l0.1,0.2l5-0.5L48.3,58z M36.1,58.6l0.6-0.2c-0.4,0-0.7-0.1-1.1-0.1l0,0.2L36.1,58.6z
					 M25.9,58l5.1-1c-4.9-2-8.8-5.8-10.8-10.7V58l3.3-0.4l0.1,0.3L25.9,58z M31.4,57.9l1.7-0.1c-0.6-0.2-1.1-0.3-1.7-0.6L31.4,57.9z
					 M45.8,20.7c4.9,2,8.7,5.9,10.6,10.6V14.8H42.1c0.7,0.2,1.5,0.4,2.3,0.7l1.4,0.4V20.7z M20.2,31.4c1.1-2.7,2.9-5.2,5.1-7.2
					l-1.8-3c-0.1-0.1-0.2-0.2-0.3-0.3c-0.2,0.1-0.5,0.4-0.6,0.7l-2.4,3.8V31.4z M26.8,20.1c-0.1,0.3-0.2,0.6-0.2,0.6l-0.9,3.1
					c1.1-0.9,2.4-1.8,3.7-2.5l-1.5-0.9c-0.2-0.1-0.4-0.2-0.6-0.4c0,0-0.2-0.1-0.4-0.2C26.8,20,26.8,20.1,26.8,20.1z M29.5,17.6
					c0,0.1,0.1,0.2,0.1,0.2l1.2,2.4v-2.6c-0.3,0-0.6,0-1,0c0,0,0,0,0,0C29.7,17.5,29.6,17.5,29.5,17.6z"/>
				<path class="st1" d="M24.6,7.8c0,0.2,0.1,0.3,0.1,0.5c0,0,0.1,0.4,0.2,0.8c0.2,0.5,0.4,0.8,0.6,0.9c0.1,0,0.2,0.1,0.3,0.1
					c0.1,0,0.1,0,0.2,0c0.8,0,1.8-0.5,1.8-0.5c0.2-0.1,0.4-0.2,0.5-0.3c-0.1,0.2-0.2,0.4-0.3,0.6c-0.1,0.3-0.3,0.9-0.4,1.3h5.9
					c-1.3,1.4-2.4,1.6-3.4,1.6c-0.1,0-0.3,0-0.4,0c-0.2,0.2-0.8,0.7-0.9,1.4c0,0.2,0,0.4,0.1,0.6c0.4,0,0.8,0.1,1.2,0.1
					c1.6,0,3.2-0.4,4.9-2.3c0.9-1.1,1.9-1.8,2.7-1.8c0.2,0,0.4,0,0.5,0.1c0.4,0.2,0.7,0.7,0.7,1.4l0,3.5c1.5,0.2,3.1,0.6,5,1.2
					l0.4,0.1v4.8c7.1,2.5,12.1,9.2,12.1,17.1c0,10-8.1,18.1-18.1,18.1c-10,0-18.1-8.1-18.1-18.1c0-7.9,5.1-14.6,12.1-17.1v-4.6
					l0.2-0.2c1.1-0.9,2.6-1.4,4.5-1.4c0.3,0,0.6,0,1,0l0-3.4c0-0.2,0-0.2-0.1-0.2c0,0-0.1,0-0.1,0c-0.3,0-1.1,0.3-2,1.4l0,0
					c-1.7,1.9-3.4,2.4-5,2.6c0.1,0,0.1,0.1,0.2,0.1c-0.4,0-0.7,0-1.1,0c0,0,0,0-0.1,0c-0.2,0-0.6,0-0.9,0.1
					c-0.4,0.1-0.8,0.3-0.9,0.5c-0.3,0.4,0.1,1.4,0.3,1.8c0.1,0.2,0.2,0.5,0.4,0.7c-0.2-0.1-0.4-0.2-0.6-0.4c0,0-0.5-0.3-1-0.4
					c-0.1,0-0.3,0-0.4,0c-0.2,0-0.4,0.1-0.6,0.2c-0.2,0.1-0.4,0.5-0.7,1c-0.2,0.4-0.3,0.8-0.3,0.8c0,0.2-0.1,0.3-0.1,0.5
					c-0.1-0.1-0.2-0.3-0.2-0.4c0,0-0.6-1-1.4-1.1c0,0-0.1,0-0.1,0c-0.1,0-0.1,0-0.2,0c-0.9,0.2-1.7,1.4-1.7,1.4
					c-0.1,0.2-0.2,0.3-0.3,0.5c0-0.2-0.1-0.3-0.1-0.5c0,0-0.2-1.5-1-1.7c-0.1,0-0.2,0-0.3,0c0,0,0,0,0,0c-0.3,0-0.7,0.1-1,0.3v40.5
					c0.4,0.1,0.7,0.3,1.1,0.6l0-0.1l0-0.6l0.6-0.1l1.6-0.2l0.5-0.1l0.2,0.5l0.2,0.5l0.2-0.4l0.2-0.4l0.5,0l1.8,0.1l0.5,0l0.1,0
					l3.1-0.6l0.8-0.1l0,0.7l3.5-0.2l0.7,0l0,0.6l1.3,0.2l0.6,0.1l0,0l1.3-0.4l0.7-0.2l0,0.1l0.5,0l1.6-0.1l0.7-0.1l0,0.2l1.2-0.2
					l0.4-0.1l0.2,0.3L43,60l0-0.4l0.6-0.1l2.2-0.2l0.9-0.1l-0.1,0.7c0.4-0.3,0.9-0.4,1.5-0.4c0.8,0,1.5,0.3,2.1,0.9l0.6,0.6L50,61.4
					l-0.1,0.1l0.2,0l0.7,0l0,0.7l0.1,2.4h1l-0.3-3.9l0-0.6l0.6-0.1l3.3-0.8l0.8-0.2l0.1,0.8l0,0.1l1.6,0.3V14.4
					c0-0.6-0.5-1.1-1.1-1.1H41v-1.1c0-0.4,0-0.7-0.1-1h16c1.8,0,3.3,1.4,3.3,3.2v45.1l0.1,0l0.7-0.2l0.1,0.4l1.2-0.2l0.4-0.1
					l0.2,0.3L63,60l0-0.4l0.6-0.1l2.2-0.2l0.9-0.1l-0.1,0.9l-0.7,4.8l-0.1,0.5l-0.5,0.1l-1.4,0.2l-0.4,0.1l-0.2-0.4L63,64.9l-0.1,0
					l-1.8,0.5l-0.8,0.2l-0.1-0.8l0-0.2c0,0-0.1,0.1-0.1,0.1v5.2c0,1.3-1,2.3-2.2,2.3H18.7c-1.2,0-2.2-1-2.2-2.3v-2.7v-2
					c-0.5-0.1-0.9-0.4-1.3-0.7c0,0,0,0,0,0c-0.5,0.8-1.7,1.2-3.6,1.2l-0.5,0L11,65.4l-0.6-1.7l-0.4-1l0.2,0
					c-0.1-0.2-0.2-0.5-0.2-0.9c0-0.1,0-0.2,0-0.4c0.1-1.3,1.4-2,3.7-2.2l0.6,0l0.1,0.6l0.2,1.1c0.1-0.2,0.3-0.4,0.5-0.6
					c0.4-0.3,0.8-0.6,1.3-0.7v-42c-0.5,0.1-0.9,0.2-0.9,0.2c-0.3,0.1-0.5,0.1-0.8,0.2c0.2-0.2,0.4-0.4,0.7-0.6
					c0.2-0.2,0.5-0.5,0.8-0.9c0.1-0.1,0.1-0.2,0.2-0.3v-1.3c0,0-0.1-0.1-0.1-0.1c-0.3-0.2-0.7-0.3-0.9-0.3c-0.4-0.1-0.8-0.1-1.1-0.2
					c0.4-0.1,0.8-0.2,1.2-0.3c0.3-0.1,0.7-0.2,1-0.3c0.1-0.6,0.5-1.2,1-1.7c0,0,0-0.1,0-0.1c-0.1-0.3-0.3-0.6-0.3-0.6
					c-0.2-0.2-0.3-0.4-0.5-0.6c0.2,0.1,0.5,0.1,0.7,0.2c0,0,0.5,0.1,1.1,0.1c0,0,0.1,0,0.1,0c0.4,0,0.8-0.1,1-0.3
					c0.6-0.5,0.8-1.8,0.8-1.8c0-0.2,0-0.4,0.1-0.6c0.1,0.1,0.2,0.2,0.3,0.4c0,0,0.8,0.9,1.6,0.9c0,0,0,0,0.1,0c0,0,0.1,0,0.1,0
					c0.9-0.1,1.7-1.4,1.7-1.4C24.5,8.1,24.6,8,24.6,7.8 M29.3,62.4L29.3,62.4l0.7-0.1l0.1,0.4l0-0.5l-0.6-0.1l-0.2,0L29.3,62.4
					 M55.1,64.5h0.6c-0.2-0.2-0.3-0.5-0.4-0.8l-0.4,0.1L55.1,64.5L55.1,64.5 M26.1-0.5l-3.7,6.3l-3.9-4.3l-0.8,6.3c0,0-0.1,0-0.1,0
					l-8.1-2l4.2,5.6l-14.4,3.9L11.5,17L4,23.9l9.5-2.5v34.8c-3.6,0.3-5.2,1.7-5.9,3.1l-2.2-0.2l1.7,4.6l0.4,1l0.6,1.7l0.2,0.5l0.8,2
					l2.2-0.1l0.5,0c0.4,0,1,0,1.8-0.2v1.2c0,2.9,2.3,5.3,5.2,5.3h39.2c2.9,0,5.2-2.4,5.2-5.3v-1.1l0.8-0.1l0.4-0.1l1.4-0.2l0.5-0.1
					l2.2-0.3l0.3-2.2l0.1-0.5l0.7-4.8l0.1-0.9l0.6-3.8l-3.8,0.4l-0.9,0.1l-1.4,0.1l-0.2-0.3l-0.4,0.1l-0.1-0.9l-0.2,0.1v-41
					c0-3.4-2.8-6.2-6.3-6.2h-16h-0.3h-0.9c0,0,0,0,0,0c-0.6-0.3-1.2-0.5-1.9-0.5c-0.7,0-1.4,0.2-2,0.5h-2.2h-1.4l2.6-5.7l-7.4,3.9
					L26.1-0.5L26.1-0.5z M47.3,16.3h7.6v9.5c-2-2.6-4.6-4.7-7.6-6.1V17V16.3L47.3,16.3z M21.7,25.8l1.4-2.3l0.3,0.4
					C22.8,24.6,22.2,25.2,21.7,25.8L21.7,25.8L21.7,25.8z M50,56.4c1.9-1.2,3.5-2.8,4.9-4.5V56l-0.2,0l-3.3,0.8L50.9,57l-0.3,0.1
					c-0.2-0.1-0.4-0.2-0.6-0.3L50,56.4L50,56.4z M21.7,56.2v-4.4c1.4,1.7,3,3.3,4.9,4.5l-0.7,0.1l-0.1,0l-1.1-0.1l-0.2-0.5l-2.3,0.3
					L21.7,56.2L21.7,56.2z"/>
			</g>
		</g>
		<g id="logo_4_">
			<g>
				<g>
					<g>
						<g>
							<path class="st40" d="M56.8,11.2h-16c0.1,0.3,0.1,0.7,0.1,1l0,1.1h15.8c0.6,0,1.1,0.5,1.1,1.1v49c0,0.6-0.5,1.1-1.1,1.1H19.8
								c-0.6,0-1.1-0.5-1.1-1.1v-49c0-0.6,0.5-1.1,1.1-1.1h6.9l0.1-1l2.1,0.3c0.4,0.1,0.9,0.1,1.4,0.1c1,0,2.1-0.2,3.4-1.6H19.8
								c-1.8,0-3.3,1.4-3.3,3.2v48.2v4.6v2.7c0,1.3,1,2.3,2.2,2.3h39.2c1.2,0,2.2-1,2.2-2.3v-6.5v-0.6V14.4
								C60.1,12.6,58.6,11.2,56.8,11.2z"/>
						</g>
						<path class="st40" d="M37.9,12c0,0,0.1,0,0.1,0.2l0,3.7h1l0-3.7c0-0.6-0.2-1.1-0.7-1.4c-0.2-0.1-0.3-0.1-0.5-0.1
							c-0.8,0-1.8,0.6-2.7,1.8c-1.7,1.8-3.3,2.3-4.9,2.3c-0.6,0-1.1-0.1-1.6-0.1l-0.1,1.2C29,16,29.6,16,30.2,16
							c1.8,0,3.7-0.5,5.6-2.6l0,0c0.9-1.1,1.6-1.4,2-1.4C37.8,12,37.9,12,37.9,12z"/>
					</g>
				</g>
			</g>
			<g>
				<g>
					<g>
						<g>
							<path class="st10" d="M32.8,22.2l0-4.8c1.9-1.6,5.4-1.8,11,0l0,4.8H32.8z"/>
						</g>
						<g>
							<path class="st40" d="M44.3,22.7h-12v-5.6l0.2-0.2c2.1-1.9,5.9-1.9,11.5-0.1l0.4,0.1V22.7z M33.3,21.7h10v-4
								c-4.8-1.5-8.2-1.5-10-0.1V21.7z"/>
						</g>
					</g>
					<g>
						<path class="st41" d="M43.7,17.8l0,3.8l-1.9,0C42.5,20.8,43.1,19.5,43.7,17.8z"/>
					</g>
					<g>
						<path class="st38" d="M34,22.2l-0.8,0l0-4.8c0.8-0.7,1.9-1.1,3.3-1.2C34.6,17.8,33.8,19.8,34,22.2z"/>
					</g>
				</g>
				<g>
					<g>
						<path class="st40" d="M44.3,22.7h-12v-5.6l0.2-0.2c2.1-1.9,5.9-1.9,11.5-0.1l0.4,0.1V22.7z M33.3,21.7h10v-4
							c-4.8-1.5-8.2-1.5-10-0.1V21.7z"/>
					</g>
				</g>
			</g>
			<g>
				<g>
					<circle class="st10" cx="38.3" cy="38.9" r="17.6"/>
				</g>
				<g>
					<path class="st41" d="M54,30.9c1.2,2.4,1.9,5.1,1.9,7.9c0,6.2-3.2,11.6-8,14.7C51.9,47,54.9,39.9,54,30.9z"/>
				</g>
				<g>
					<path class="st38" d="M34.2,56c-7.8-1.8-13.5-8.8-13.5-17.1c0-8.8,6.4-16,14.8-17.4C25.2,28,21.3,45.4,34.2,56z"/>
				</g>
				<g>
					<g>
						<path class="st40" d="M38.3,57c-10,0-18.1-8.1-18.1-18.1s8.1-18.1,18.1-18.1s18.1,8.1,18.1,18.1S48.3,57,38.3,57z M38.3,21.7
							c-9.4,0-17.1,7.7-17.1,17.1S28.9,56,38.3,56s17.1-7.7,17.1-17.1S47.7,21.7,38.3,21.7z"/>
					</g>
				</g>
				<g>
					<g>
						<path class="st41" d="M45.4,25.2c0,0-0.2-0.1-0.3-0.3c-0.2-0.2-0.4-0.4-0.6-0.6c-0.2-0.2-0.5-0.3-0.7-0.4
							c-0.2-0.1-0.4-0.1-0.4-0.1c0,0-0.2-0.1-0.4-0.1c-0.2-0.1-0.5-0.1-0.9-0.1c-0.7-0.1-1.3-0.1-1.3-0.2c0-0.1,0.6-0.3,1.3-0.4
							c0.3,0,0.7,0,1,0c0.3,0,0.5,0.1,0.5,0.1c0,0,0.2,0.1,0.5,0.2c0.3,0.1,0.6,0.4,0.8,0.7c0.2,0.3,0.4,0.6,0.5,0.9
							C45.4,25,45.4,25.2,45.4,25.2z"/>
					</g>
				</g>
				<g>
					<g>
						<g>
							<g>
								<g>
									<path class="st40" d="M35.1,30.1L35.1,30.1c-0.2-0.1-0.3-0.2-0.3-0.3l-0.2-0.2c-0.1-0.1-0.2-0.2-0.4-0.2l-0.1-0.1
										c-0.5-0.3-1.2-0.7-2-1c-0.6-0.2-1.3-0.4-1.9-0.5c-0.5-0.1-0.8,0-0.9,0l-0.1,0l0,0.1c0,0.2,0.1,0.2,0.5,0.3
										c0.4,0.1,1.2,0.3,2,0.7c0.6,0.3,1.2,0.6,1.8,1.1l0.3,0.2c-0.2,0-0.3,0-0.6,0.1c-0.8,0.1-1.7,0.3-2.5,0.5
										c-1.5,0.4-3.3,1.2-3.4,1.5l0,0.1l0,0.1c0,0.1,0.1,0.1,0.2,0.1c0.1,0,0.4-0.1,0.9-0.2C29,32.3,30,32,31,31.8
										c0.8-0.2,1.7-0.3,2.4-0.3c0.3,0,0.6,0,0.8,0l2.5-0.1l-0.3-0.3C35.9,30.8,35.5,30.5,35.1,30.1z"/>
								</g>
								<g>
									<path class="st40" d="M48.2,31.2c-0.5-0.3-1.3-0.6-2.2-0.8c-0.7-0.2-1.5-0.3-2.3-0.3l-0.2,0c0.6-0.4,1.2-0.7,1.7-1
										c0.5-0.2,1.1-0.4,1.5-0.4c0.2,0,0.4,0,0.5,0c0.2,0,0.4,0,0.4-0.1l0-0.1l0-0.1c-0.1-0.1-0.5-0.2-0.8-0.3
										c-0.5-0.1-1.2,0-1.8,0.2c-0.6,0.2-1.2,0.5-1.9,0.9l-0.3,0.2c0,0-0.1,0.1-0.2,0.1l-0.2,0.2c-0.2,0.1-0.3,0.2-0.4,0.3
										l-1.6,1.1l2.4,0l1,0c0.8,0,1.6,0.1,2.2,0.2c0.8,0.1,1.6,0.3,2.1,0.5c0.3,0.1,0.5,0.3,0.7,0.4c0.1,0.1,0.2,0.1,0.3,0.1
										c0,0,0.1,0,0.1,0l0.1,0l0-0.1C49,31.9,48.7,31.5,48.2,31.2z"/>
								</g>
							</g>
						</g>
						<g>
							<g>
								<g>
									<path class="st40" d="M27.5,38.9C32.3,50,44.5,49.2,49.1,39c0.5-1.1-0.3-2.3-1.5-2.3c-5.8-1.4-12.1-1.2-18.7,0
										C27.8,36.7,27,37.8,27.5,38.9z"/>
								</g>
							</g>
							<g>
								<path class="st12" d="M30.8,43.8C33,46,35.7,47,38.3,47C39.4,44.4,35.2,40.9,30.8,43.8z"/>
							</g>
							<g>
								<path class="st9" d="M47.6,36.7c-5.8-1.4-12.1-1.2-18.7,0C28.9,38.8,46.5,39.1,47.6,36.7z"/>
							</g>
							<g>
								<g>
									<g>
										<path class="st40" d="M49.6,38c-0.1-0.6-0.6-1.3-1.3-1.5c-0.2-0.1-0.4-0.1-0.6-0.1c-0.1,0-0.3-0.1-0.4-0.1
											c-0.3-0.1-0.7-0.2-1-0.2c-0.7-0.1-1.5-0.3-2.3-0.3c-1.6-0.2-3.3-0.3-4.9-0.3c-0.3,0-0.6,0-0.9,0c-0.2,0-0.3,0-0.5,0
											c-1.7,0-3.3,0.2-4.9,0.3c-0.8,0.1-1.5,0.2-2.3,0.3c-0.4,0.1-0.7,0.1-1,0.2c-0.2,0-0.3,0.1-0.5,0.1c-0.1,0,0,0-0.1,0
											l-0.1,0c-0.1,0-0.2,0-0.3,0.1c-0.8,0.2-1.3,0.8-1.4,1.5c-0.1,0.3-0.1,0.6,0,0.9c0.1,0.3,0.2,0.5,0.3,0.6
											c0.3,0.7,0.6,1.1,0.6,1.2c0,0,0.2,0.5,0.7,1.1c0.4,0.6,1.1,1.5,2,2.4c0.9,0.9,2.2,1.8,3.7,2.4c0.8,0.3,1.6,0.5,2.4,0.6
											c0.5,0.1,0.9,0.1,1.4,0.1c1.4,0,2.8-0.3,4-0.7c1.5-0.6,2.8-1.5,3.7-2.3c1-0.9,1.6-1.8,2.1-2.4c0.2-0.3,0.4-0.6,0.5-0.8
											c0.1-0.2,0.2-0.3,0.2-0.3c0-0.1,0.3-0.4,0.6-1.2c0.1-0.2,0.2-0.3,0.3-0.6C49.6,38.6,49.6,38.3,49.6,38z M36.8,46.6
											c-0.8-0.1-1.5-0.4-2.3-0.6c-1.4-0.6-2.6-1.4-3.5-2.3c-0.9-0.9-1.5-1.7-1.9-2.3c-0.4-0.6-0.6-1-0.6-1.1
											c0,0-0.3-0.4-0.6-1.1c-0.1-0.2-0.2-0.4-0.2-0.5c0-0.2-0.1-0.4,0-0.6c0.1-0.4,0.4-0.8,0.9-0.9c0.1,0,0.1,0,0.2,0l0.1,0
											l0.1,0c0,0,0,0,0.1,0l0,0c0.2,0,0.3-0.1,0.5-0.1c0.3-0.1,0.7-0.1,1-0.2c0.7-0.1,1.5-0.2,2.2-0.3c1.5-0.2,3.2-0.4,4.9-0.4
											c0.3,0,0.6,0,0.8,0c0.2,0,0.4,0,0.5,0c1.7,0,3.3,0.1,4.8,0.3c0.8,0.1,1.5,0.2,2.2,0.4c0.4,0.1,0.7,0.2,1,0.2
											c0.1,0,0.2,0,0.2,0.1l0.1,0l0.1,0c0,0,0.1,0,0.1,0c0.1,0,0.3,0,0.4,0.1c0.5,0.2,0.8,0.6,0.8,1c0,0.2,0,0.4,0,0.6
											c0,0.2-0.2,0.4-0.2,0.5c-0.3,0.7-0.6,1.1-0.6,1.1c0,0-0.1,0.1-0.2,0.3c-0.1,0.2-0.3,0.4-0.5,0.7c-0.4,0.6-1,1.4-2,2.3
											c-0.9,0.8-2.1,1.7-3.5,2.3c-0.7,0.3-1.5,0.5-2.2,0.6c-0.4,0.1-0.8,0.1-1.2,0.1C37.9,46.7,37.3,46.6,36.8,46.6z"/>
									</g>
								</g>
							</g>
						</g>
					</g>
					<g>
						<g>
							<g>
								<path class="st40" d="M43.5,48.6c0.1,0.1-1,0.5-2.1,0.8c-0.6,0.1-1.2,0.2-1.6,0.3c-0.5,0-0.8,0.1-0.8,0.1c0,0-0.3,0-0.8,0
									c-0.5,0-1.1-0.1-1.6-0.2c-1.2-0.2-2.2-0.7-2.1-0.8c0.1-0.1,1.2,0.2,2.3,0.3c0.6,0.1,1.1,0.1,1.5,0.1c0.4,0,0.7,0,0.7,0
									c0,0,0.3,0,0.7,0c0.4,0,1,0,1.6-0.1C42.3,48.7,43.4,48.5,43.5,48.6z"/>
							</g>
						</g>
					</g>
				</g>
			</g>
			<g>
				<g>
					<path class="st10" d="M26,9.4c0.1-1.1,0.5-2.1,1.1-2.7c0,0.5,0.2,0.8,0.4,1.2C26.9,7.8,26.4,8.6,26,9.4z"/>
				</g>
			</g>
			<g>
				<g>
					<path class="st10" d="M23,20.5c-0.4,0.9-0.8,1.5-1.3,1.7c0.2,0.3,0.3,0.7,0.4,1.1C22.8,22.5,23.2,21.6,23,20.5z"/>
				</g>
			</g>
			<g>
				<g>
					<path class="st10" d="M14.1,16.3c0.4,0.1,0.8,0,1.3-0.3c-0.3,0.4-0.7,0.7-1.4,0.8C14.1,16.7,14.1,16.5,14.1,16.3z"/>
				</g>
			</g>
			<g>
				<g>
					<g>
						<polygon class="st10" points="63,64.5 63.1,64.6 60.6,65.2 60.2,60.2 62.4,59.8 63.4,61 63.4,59.9 66.3,59.6 65.4,65 
							63.6,65.3 						"/>
					</g>
					<g>
						<g>
							<path class="st40" d="M65.9,60l-0.7,4.8l-1.4,0.2l-1.3-2l0.2,1.4l-1.8,0.5l-0.3-4.3l1.7-0.3l1.4,1.8l0-1.8L65.9,60
								 M66.7,59.2l-0.9,0.1l-2.2,0.2L63,59.6l0,0.4l-0.2-0.3l-0.2-0.3l-0.4,0.1l-1.7,0.3l-0.6,0.1l0,0.6l0.3,4.3l0.1,0.8l0.8-0.2
								l1.8-0.5l0.1,0l0.2,0.4l0.2,0.4l0.4-0.1l1.4-0.2l0.5-0.1l0.1-0.5l0.7-4.8L66.7,59.2L66.7,59.2z"/>
						</g>
					</g>
				</g>
				<g>
					<g>
						<path class="st10" d="M17.5,65.1c-0.8,0-1.5-0.3-2.1-0.7c-0.6-0.5-0.9-1.1-0.9-1.9c0-0.7,0.3-1.4,0.9-1.9
							c0.6-0.5,1.3-0.7,2.1-0.7c0.8,0,1.5,0.3,2.1,0.7c0.6,0.5,0.9,1.1,0.9,1.9c0,0.7-0.3,1.4-0.9,1.9C19,64.8,18.3,65.1,17.5,65.1z
							 M17.3,61.9c-0.2,0-0.3,0.1-0.5,0.2c-0.1,0.1-0.2,0.2-0.2,0.3s0,0.2,0.2,0.3c0.1,0.1,0.3,0.2,0.5,0.2c0.2,0,0.3-0.1,0.5-0.2
							c0.1-0.1,0.2-0.2,0.2-0.3s0-0.2-0.2-0.3C17.7,61.9,17.5,61.9,17.3,61.9z"/>
					</g>
					<g>
						<g>
							<path class="st40" d="M17.5,60.2c0.7,0,1.3,0.2,1.9,0.7c0.5,0.4,0.8,1,0.8,1.6s-0.3,1.2-0.8,1.6c-0.5,0.4-1.1,0.7-1.9,0.7
								c-0.7,0-1.4-0.2-1.9-0.7c-0.5-0.4-0.8-1-0.8-1.6s0.3-1.2,0.8-1.6C16.2,60.4,16.8,60.2,17.5,60.2 M17.3,63.2
								c0.3,0,0.5-0.1,0.7-0.2c0.2-0.2,0.3-0.4,0.3-0.6c0-0.2-0.1-0.4-0.3-0.6c-0.2-0.2-0.4-0.2-0.7-0.2c-0.3,0-0.5,0.1-0.7,0.2
								c-0.2,0.2-0.3,0.4-0.3,0.6c0,0.2,0.1,0.4,0.3,0.6C16.8,63.1,17.1,63.2,17.3,63.2 M17.5,59.5c-0.9,0-1.7,0.3-2.3,0.8
								c-0.7,0.6-1,1.3-1,2.1s0.3,1.6,1,2.1c0.6,0.6,1.4,0.8,2.3,0.8c0.9,0,1.7-0.3,2.3-0.8c0.7-0.6,1-1.3,1-2.1s-0.3-1.6-1-2.1
								C19.2,59.8,18.4,59.5,17.5,59.5L17.5,59.5z M17.3,62.5c-0.1,0-0.2,0-0.3-0.1c-0.1,0-0.1-0.1-0.1-0.1c0,0,0,0,0.1-0.1
								c0,0,0.1-0.1,0.3-0.1c0.1,0,0.2,0,0.3,0.1c0.1,0,0.1,0.1,0.1,0.1c0,0,0,0-0.1,0.1C17.5,62.5,17.5,62.5,17.3,62.5L17.3,62.5z"
								/>
						</g>
					</g>
				</g>
				<g>
					<g>
						<path class="st10" d="M10.5,63l0.5,0.1c-0.4-0.3-0.6-0.7-0.6-1.3c0-0.1,0-0.2,0-0.3c0.1-1.1,1.2-1.7,3.4-1.9l0.3,0l0.4,2.3
							l-0.2,0c0.4,0.2,0.8,0.7,0.8,1.6v0.1c0,1.2-1.2,1.8-3.5,1.9l-0.2,0L10.5,63z"/>
					</g>
					<g>
						<g>
							<path class="st40" d="M13.8,59.9l0.3,1.6c-0.1,0-0.2,0-0.3,0c-0.8,0-1.1,0.1-1.2,0.2c0,0,0,0,0,0c0,0.1,0.4,0.2,1.1,0.3
								c0.7,0,1.1,0.5,1.1,1.4v0.1c0,1-1.1,1.5-3.2,1.5L11,63.4c0.5,0.1,0.9,0.1,1.2,0.1c0.3,0,0.5,0,0.6-0.1c0,0,0,0,0,0
								c0-0.1-0.3-0.2-1-0.3c-0.7-0.1-1-0.5-1-1.2c0-0.1,0-0.2,0-0.3C10.8,60.6,11.9,60.1,13.8,59.9 M14.4,59.2l-0.6,0
								c-2.3,0.2-3.6,0.9-3.7,2.2c0,0.1,0,0.2,0,0.4c0,0.3,0.1,0.6,0.2,0.9l-0.2,0l0.4,1l0.6,1.7l0.2,0.5l0.5,0
								c2.5-0.1,3.8-0.8,3.9-2.2l0-0.1c0-0.9-0.3-1.4-0.6-1.7l-0.1-0.4l-0.3-1.6L14.4,59.2L14.4,59.2z"/>
						</g>
					</g>
				</g>
				<g>
					<g>
						<polygon class="st10" points="20.1,59.9 22.2,59.6 22.8,61 23.4,59.7 25.7,59.9 26,64.8 23.5,65 23.5,63.8 22.8,64.5 22.2,64 
							22.2,64.7 19.8,65.2 						"/>
					</g>
					<g>
						<g>
							<path class="st40" d="M22,60l0.7,1.9l0.9-1.8l1.8,0.1l0.3,4.3l-1.8,0.2l-0.1-1.7l-1,1.1l-0.9-1l0.1,1.3l-1.7,0.3l0.2-4.6
								L22,60 M22.4,59.2l-0.5,0.1l-1.6,0.2l-0.6,0.1l0,0.6l-0.2,4.6l0,0.9l0.8-0.2l1.7-0.3l0.6-0.1l0-0.1l0.2,0.2l0.4-0.4l0,0.1
								l0,0.7l0.7-0.1l1.8-0.2l0.7-0.1l0-0.7l-0.3-4.3l0-0.6l-0.6,0l-1.8-0.1l-0.5,0L23,59.8l-0.2,0.4l-0.2-0.5L22.4,59.2L22.4,59.2
								z"/>
						</g>
					</g>
				</g>
				<g>
					<g>
						<polygon class="st10" points="25.9,59.9 29.7,59.2 29.8,61.8 29,61.9 29,62.8 29.7,62.7 30.2,65.1 25.5,65.2 						"/>
					</g>
					<g>
						<g>
							<path class="st40" d="M29.3,59.6l0.1,1.9l-1.9,0.2l0,0.2l1.1-0.1l0.1,1.3l-1.1,0.1l0,0.2l1.9-0.1l0.3,1.6l-4,0.1l0.4-4.7
								L29.3,59.6 M30,58.8l-0.8,0.1l-3.1,0.6l-0.5,0.1l0,0.5l-0.4,4.7l-0.1,0.8l0.8,0l4-0.1l0.8,0l-0.2-0.8L30.1,63L30,62.4l-0.6,0
								l-0.1,0l0-0.3l0.2,0l0.6-0.1l0-0.6L30,59.6L30,58.8L30,58.8z"/>
						</g>
					</g>
				</g>
				<g>
					<g>
						<polygon class="st10" points="30.5,61.9 29.2,61.8 29.4,59.8 33.9,59.6 34.1,62.2 32.7,62.1 32.8,64.6 30.2,65.3 						"/>
					</g>
					<g>
						<g>
							<path class="st40" d="M33.5,59.9l0.2,1.9l-1.4-0.1l0.1,2.6l-1.9,0.5l0.3-3.2l-1.3-0.1l0.1-1.4L33.5,59.9 M34.2,59.2l-0.7,0
								l-3.9,0.2l-0.6,0L29,60.1l-0.1,1.4l-0.1,0.7l0.7,0.1l0.6,0.1l-0.2,2.5l-0.1,0.9l0.9-0.2l1.9-0.5l0.5-0.1l0-0.6L33,62.5
								l0.6,0.1l0.8,0.1l-0.1-0.8l-0.2-1.9L34.2,59.2L34.2,59.2z"/>
						</g>
					</g>
				</g>
				<g>
					<g>
						<polygon class="st10" points="51.9,60.2 55.9,59.2 56.1,61.5 55.4,61.6 55.6,63.3 54.5,63.5 54.8,64.8 52.3,65.1 						"/>
					</g>
					<g>
						<g>
							<path class="st40" d="M55.6,59.7l0.1,1.5l-2,0.4l0.1,0.2l1.2-0.2l0.2,1.5l-1.2,0.2l0.3,1.3l-1.8,0.2l-0.4-4.3L55.6,59.7
								 M56.2,58.8L55.5,59l-3.3,0.8l-0.6,0.1l0,0.6l0.4,4.3l0.1,0.7l0.7-0.1l1.8-0.2l0.7-0.1L55,64.4l-0.1-0.6l0.5-0.1l0.6-0.1
								L55.9,63l-0.1-1.1l0.1,0l0.6-0.1l-0.1-0.6l-0.1-1.5L56.2,58.8L56.2,58.8z"/>
						</g>
					</g>
				</g>
				<g>
					<g>
						<path class="st10" d="M58,65.1c-1.7,0-2.6-0.9-2.6-2.7c0-0.6,0.1-1.3,0.3-2.1l0.1-0.3l2.4,0.5l2.4-0.8l0.1,0.4
							c0.1,0.6,0.1,1.2,0.1,1.7C60.8,64.5,59.3,65.1,58,65.1L58,65.1L58,65.1z M58.2,60.8c-0.2,0.8-0.4,1.3-0.4,1.7
							c0,0.4,0.1,0.4,0.2,0.4c0.1,0,0.4,0,0.4-0.9C58.5,61.7,58.4,61.3,58.2,60.8l0-0.1L58.2,60.8z"/>
					</g>
					<g>
						<g>
							<path class="st40" d="M60.4,60.1c0.1,0.6,0.1,1.1,0.1,1.6c0,2-0.8,3-2.5,3c-1.5,0-2.3-0.8-2.3-2.4c0-0.6,0.1-1.2,0.3-2
								l1.9,0.4c-0.3,0.8-0.4,1.4-0.4,1.8c0,0.5,0.2,0.7,0.5,0.7c0.5,0,0.8-0.4,0.8-1.2c0-0.4-0.1-0.8-0.2-1.4L60.4,60.1 M60.9,59.3
								l-0.7,0.2L58.4,60l-0.2,0.1l-0.2,0l-1.9-0.4l-0.6-0.1l-0.2,0.6c-0.2,0.8-0.3,1.6-0.3,2.2c0,1.9,1,3,2.9,3
								c1.2,0,3.2-0.5,3.2-3.7c0-0.5-0.1-1.1-0.2-1.7L60.9,59.3L60.9,59.3z"/>
						</g>
					</g>
				</g>
				<g>
					<g>
						<path class="st10" d="M33.1,64.3l0.7-4.2l2,0.4l0,0.2l2.1-0.6l1,4.8l-3.1,0.3l0-1.5l-0.4,0l-0.2,1.6L33.1,64.3z M35.7,61.4
							l0-0.7L35.7,61.4L35.7,61.4z"/>
					</g>
					<g>
						<g>
							<path class="st40" d="M37.6,60.4l0.8,4.1l-2.3,0.2l0-1.4l-1-0.1L35,64.7l-1.5-0.7l0.6-3.6l1.4,0.2l-0.1,1l0.8,0.1l0-1
								L37.6,60.4 M38.1,59.6l-0.7,0.2l-1.3,0.4l0,0L35.5,60l-1.4-0.2l-0.7-0.1l-0.1,0.7L32.8,64l-0.1,0.5l0.5,0.2l1.5,0.7l0.8,0.4
								l0-0.3l0.6-0.1l2.3-0.2l0.7-0.1l-0.2-0.7l-0.8-4.1L38.1,59.6L38.1,59.6z"/>
						</g>
					</g>
				</g>
				<g>
					<g>
						<polygon class="st10" points="43,64.5 43,64.6 40.5,65.2 40.1,60.2 42.4,59.8 43.3,61 43.3,59.9 46.2,59.6 45.4,65 43.5,65.3 
													"/>
					</g>
					<g>
						<g>
							<path class="st40" d="M45.8,60l-0.7,4.8l-1.4,0.2l-1.3-2l0.2,1.4l-1.8,0.5l-0.3-4.3l1.7-0.3l1.4,1.8l0-1.8L45.8,60
								 M46.6,59.2l-0.9,0.1l-2.2,0.2L43,59.6l0,0.4l-0.2-0.3l-0.2-0.3l-0.4,0.1l-1.7,0.3l-0.6,0.1l0,0.6l0.3,4.3l0.1,0.8l0.8-0.2
								l1.8-0.5l0.1,0l0.2,0.4l0.2,0.4l0.4-0.1l1.4-0.2l0.5-0.1l0.1-0.5l0.7-4.8L46.6,59.2L46.6,59.2z"/>
						</g>
					</g>
				</g>
				<g>
					<g>
						<polygon class="st10" points="38.4,60 40.6,59.8 41,64.9 38.3,65.4 						"/>
					</g>
					<g>
						<g>
							<path class="st40" d="M40.3,60.2l0.3,4.4l-2,0.4l0.1-4.7L40.3,60.2 M40.9,59.5l-0.7,0.1l-1.6,0.1l-0.6,0l0,0.6L37.9,65l0,0.8
								l0.8-0.2l2-0.4l0.6-0.1l0-0.6l-0.3-4.4L40.9,59.5L40.9,59.5z"/>
						</g>
					</g>
				</g>
				<g>
					<g>
						<path class="st10" d="M48.1,65.1c-0.1,0-0.1,0-0.2,0c-0.7,0-1.4-0.3-1.9-0.8c-0.5-0.5-0.8-1.1-0.8-1.9c0-0.7,0.3-1.3,0.8-1.9
							c0.5-0.5,1.2-0.8,1.9-0.8c0.7,0,1.4,0.3,1.9,0.8l0.3,0.3l-1.4,1l1.7-0.1l0.1,3.2l-2.5,0.7L48.1,65.1z M47.8,61.8
							c-0.1,0-0.3,0-0.4,0.1c-0.1,0.1-0.1,0.2-0.1,0.3c0,0.3,0.1,0.4,0.1,0.4c0,0,0.1,0.1,0.2,0.1l0.1-0.9l0.5,0
							C48,61.8,47.9,61.8,47.8,61.8z"/>
					</g>
					<g>
						<g>
							<path class="st40" d="M48,60.2c0.6,0,1.2,0.2,1.6,0.7l-1.2,0.9c-0.2-0.2-0.4-0.2-0.6-0.2c-0.2,0-0.4,0.1-0.6,0.2
								C47,61.9,47,62.1,47,62.3c0,0.3,0.1,0.5,0.2,0.7c0.2,0.1,0.3,0.2,0.6,0.2c0,0,0.1,0,0.1,0c0.3,0,0.5-0.1,0.7-0.3l-0.7,0
								l0-0.7l2.2-0.1l0.1,2.6l-1.8,0.5l0-0.5c-0.1,0-0.3,0-0.5,0c-0.6,0-1.2-0.2-1.6-0.7c-0.5-0.4-0.7-1-0.7-1.6
								c0-0.6,0.2-1.2,0.7-1.6C46.8,60.4,47.3,60.2,48,60.2 M48,59.5c-0.8,0-1.5,0.3-2.1,0.9c-0.6,0.6-0.9,1.3-0.9,2.1
								c0,0.8,0.3,1.5,0.9,2.1c0.5,0.5,1.2,0.8,1.9,0.9l0,0.7l0.9-0.3l1.8-0.5l0.5-0.1l0-0.5l-0.1-2.6l0-0.7l-0.7,0l-0.2,0l0.1-0.1
								l0.6-0.5l-0.6-0.6C49.5,59.8,48.8,59.5,48,59.5L48,59.5z"/>
						</g>
					</g>
				</g>
			</g>
			<g>
				<path class="st9" d="M19.9,68.8c-0.7-0.1-1-0.5-1-1.2c0-0.1,0-0.2,0-0.3c0.1-0.9,1.1-1.4,3.1-1.6l0.3,1.6c-0.1,0-0.2,0-0.3,0
					c-0.8,0-1.1,0.1-1.2,0.2c0,0,0,0,0,0c0,0.1,0.4,0.2,1.1,0.3c0.7,0,1.1,0.5,1.1,1.4v0.1c0,1-1.1,1.5-3.2,1.5l-0.6-1.7
					c0.5,0.1,0.9,0.1,1.2,0.1c0.3,0,0.5,0,0.6-0.1c0,0,0,0,0,0C20.9,69,20.5,68.9,19.9,68.8z"/>
			</g>
			<g>
				<path class="st9" d="M26.9,67.5l0.1,2.6l-1.9,0.5l0.3-3.2l-1.3-0.1l0.1-1.4l3.9-0.2l0.2,1.9L26.9,67.5z"/>
			</g>
			<g>
				<path class="st9" d="M30.4,66.1l1.9,0.4c-0.3,0.8-0.4,1.4-0.4,1.8c0,0.5,0.2,0.7,0.5,0.7c0.5,0,0.8-0.4,0.8-1.2
					c0-0.4-0.1-0.8-0.2-1.4l1.7-0.5c0.1,0.6,0.1,1.1,0.1,1.6c0,2-0.8,3-2.5,3c-1.5,0-2.3-0.8-2.3-2.4C30.1,67.6,30.2,66.9,30.4,66.1
					z"/>
			</g>
			<g>
				<path class="st9" d="M36.9,70.5l-0.2-4.6c3,0,4.5,0.8,4.5,2.3S39.7,70.5,36.9,70.5z M38.2,67.3l0.2,1.3h0c0.7,0,1.1-0.2,1.1-0.6
					C39.5,67.5,39.1,67.3,38.2,67.3z"/>
			</g>
			<g>
				<path class="st9" d="M44.5,66l0.3,4.4l-2,0.4l0.1-4.7L44.5,66z"/>
			</g>
			<g>
				<path class="st9" d="M54.3,68.8c-0.7-0.1-1-0.5-1-1.2c0-0.1,0-0.2,0-0.3c0.1-0.9,1.1-1.4,3.1-1.6l0.3,1.6c-0.1,0-0.2,0-0.3,0
					c-0.8,0-1.1,0.1-1.2,0.2c0,0,0,0,0,0c0,0.1,0.4,0.2,1.1,0.3c0.7,0,1.1,0.5,1.1,1.4v0.1c0,1-1.1,1.5-3.2,1.5l-0.6-1.7
					c0.5,0.1,0.9,0.1,1.2,0.1c0.3,0,0.5,0,0.6-0.1c0,0,0,0,0,0C55.3,69,54.9,68.9,54.3,68.8z"/>
			</g>
			<g>
				<path class="st9" d="M51,66.6c-0.5-0.4-1.1-0.7-1.9-0.7c-0.7,0-1.4,0.2-1.9,0.7c-0.5,0.4-0.8,1-0.8,1.6c0,0.6,0.3,1.2,0.8,1.6
					c0.5,0.4,1.1,0.7,1.9,0.7c0.7,0,1.3-0.2,1.9-0.7c0.5-0.4,0.8-1,0.8-1.6C51.8,67.6,51.5,67.1,51,66.6z M47.6,67.4L47.6,67.4
					L47.6,67.4c0-0.2,0.5-0.3,0.5-0.3c0.1,0,0.1,0,0.2,0c0,0-0.1,0-0.1,0c-0.1,0-0.2-0.1-0.2-0.1c-0.1,0-0.1,0-0.1-0.1l0,0l0,0
					c0,0,0.1,0,0.2,0c0.1,0,0.2,0,0.3,0.1c0.1,0,0.2,0.1,0.3,0.1l0,0c0,0,0,0,0,0l0,0c0,0,0,0,0,0l0,0c0.1,0,0.1,0.1,0.1,0.1
					l0.2,0.2l-0.5,0c0,0-0.1,0-0.1,0c-0.1,0-0.2,0-0.3,0c-0.1,0-0.3,0.1-0.3,0.1C47.8,67.5,47.8,67.5,47.6,67.4
					C47.7,67.5,47.7,67.5,47.6,67.4z M50.5,68.3c-0.6,1.3-2.2,1.4-2.8,0c-0.1-0.1,0-0.3,0.2-0.3c0.9-0.2,1.7-0.2,2.4,0
					C50.5,68,50.6,68.2,50.5,68.3z M50.6,67.4L50.6,67.4c-0.1,0-0.1,0-0.1,0c0,0-0.1,0-0.1,0c0,0,0,0-0.1,0c-0.1,0-0.1,0-0.3-0.1
					l-0.3,0l-0.1,0l-0.6,0l0.4-0.3c0,0,0,0,0.1,0l0,0c0,0,0,0,0,0l0,0c0.1-0.1,0.2-0.1,0.3-0.1c0.1,0,0.2,0,0.3,0
					c0.1,0,0.1,0,0.2,0.1l0,0l0,0l0,0c0,0.1-0.1,0.1-0.1,0.1c0,0,0,0,0,0c0,0,0,0,0,0c0,0-0.1,0-0.2,0c0,0,0.1,0,0.1,0
					c0.1,0,0.2,0.1,0.3,0.1C50.5,67.2,50.6,67.3,50.6,67.4L50.6,67.4z"/>
			</g>
			<path class="st10" d="M20.9,20.7c0,0-0.2-1.5-1-1.7c-0.1,0-0.2,0-0.3,0c-0.9,0-1.8,0.8-1.8,0.8c-0.2,0.2-0.4,0.4-0.6,0.5
				c0.1-0.3,0.2-0.5,0.3-0.8c0.3-0.7,0.4-1.6,0.3-1.8c0,0-0.1-0.1-0.7-0.1c-0.7,0-1.5,0.2-1.6,0.2c-0.3,0.1-0.5,0.1-0.8,0.2
				c0.2-0.2,0.4-0.4,0.7-0.6c0.2-0.2,0.5-0.5,0.8-0.9c0.4-0.4,0.6-0.8,0.6-1c0-0.3-0.3-0.5-0.5-0.7c-0.3-0.2-0.7-0.3-0.9-0.3
				c-0.4-0.1-0.8-0.1-1.1-0.2c0.4-0.1,0.8-0.2,1.2-0.3c0.7-0.2,1.9-0.6,2-1.1c0.1-0.4,0-0.8-0.1-1c-0.1-0.3-0.3-0.6-0.3-0.6
				c-0.2-0.2-0.3-0.4-0.5-0.6c0.2,0.1,0.5,0.1,0.7,0.2c0,0,0.6,0.2,1.2,0.1c0.4,0,0.8-0.1,1-0.3c0.6-0.5,0.8-1.8,0.8-1.8
				c0-0.2,0-0.4,0.1-0.6c0.1,0.1,0.2,0.2,0.3,0.4c0,0,0.8,0.9,1.6,0.9c0,0,0.1,0,0.1,0c0.9-0.1,1.7-1.4,1.7-1.4
				c0.1-0.2,0.2-0.3,0.3-0.5c0,0.2,0.1,0.3,0.1,0.5c0,0,0.1,0.4,0.2,0.8c0.2,0.5,0.4,0.8,0.6,0.9c0.1,0,0.2,0.1,0.3,0.1
				c0.8,0.1,1.9-0.5,2-0.5c0.2-0.1,0.4-0.2,0.5-0.3c-0.1,0.2-0.2,0.4-0.3,0.6c-0.2,0.4-0.5,1.4-0.3,1.8c0.1,0.1,0.3,0.3,0.9,0.4
				c0.5,0.1,1.1,0.1,1.1,0.1c0.2,0,0.5,0,0.7,0c-0.2,0.2-0.4,0.3-0.6,0.5c0,0-0.9,0.7-1,1.5c-0.1,0.8,1.1,1.4,1.1,1.4
				c0.3,0.2,0.7,0.3,1,0.5c-0.4,0-0.7,0-1.1,0c-0.2,0-0.6,0-1,0.1c-0.4,0.1-0.8,0.3-0.9,0.5c-0.3,0.4,0.1,1.4,0.3,1.8
				c0.1,0.2,0.2,0.5,0.4,0.7c-0.2-0.1-0.4-0.2-0.6-0.4c0,0-0.5-0.3-1-0.4c-0.4-0.1-0.7,0-0.9,0.1c-0.2,0.1-0.4,0.5-0.7,1
				c-0.2,0.4-0.3,0.8-0.3,0.8c0,0.2-0.1,0.3-0.1,0.5c-0.1-0.1-0.2-0.3-0.2-0.4c0,0-0.6-1-1.4-1.1c-0.1,0-0.2,0-0.3,0
				c-0.9,0.2-1.7,1.4-1.7,1.4c-0.1,0.2-0.2,0.3-0.3,0.5C21,21,21,20.8,20.9,20.7"/>
			<path class="st38" d="M17.8,19.5c0,0,1.2-1.1,2.2-0.8c0.8,0.2,1.1,1.9,1.1,1.9c0,0,0.8-1.3,1.8-1.5c1-0.2,1.9,1.2,1.9,1.2
				c0,0,0.4-1.5,1-1.9c0.8-0.5,2.1,0.2,2.1,0.2c0,0-0.7-1.4-0.3-2.1c0.5-0.7,2-0.7,2-0.6c0,0-1.3-0.7-1.2-1.6
				c0.1-0.9,1.1-1.6,1.1-1.6c0,0-1.7,0-2.1-0.6c-0.4-0.6,0.3-2.1,0.3-2.1c0,0-1.6,0.8-2.3,0.5c-0.6-0.3-0.9-1.8-0.9-1.8
				c0,0-0.9,1.4-1.9,1.5c-1,0.1-1.9-1-1.9-1c0,0-0.2,1.5-0.9,2c-0.8,0.6-2.3,0.2-2.3,0.2c0,0,0.7,1,0.4,1.8
				c-0.3,0.8-2.2,1.2-2.2,1.3c0,0,1.6,0.3,1.5,1.2c-0.1,0.8-1.5,2.1-1.5,2.1c0,0,2-0.5,2.4-0.1C18.4,17.9,17.8,19.5,17.8,19.5"/>
		</g>
	</g>
</g>
<g id="color-palette">
</g>
<g id="ui-elements">
</g>
<g id="grid">
</g>
</svg>
